<svg id="Layer_1" data-name="Layer 1" xmlns="http://www.w3.org/2000/svg" viewBox="0 0 501.2666 131.374">
  <g>
    <path id="fullLogo" d="M51.074,95.7719H0v-.8342a16.9594,16.9594,0,0,0,3.8808-1.0862,7.9538,7.9538,0,0,0,2.9635-2.0863,3.7544,3.7544,0,0,0,.6668-1.46q.2513-.9579.4594-2.2123a25.82,25.82,0,0,0,.2919-2.6287q.0822-1.3758.083-2.7116,0-1.1691.043-3.171.04-2.0026.0829-4.3816.04-2.3782.0415-4.8818V49.2048q0-1.5025-.0415-3.0881c-.03-1.0557-.0829-2.0574-.1674-3.0043a15.6962,15.6962,0,0,0-.4164-2.5449A3.5639,3.5639,0,0,0,7.0948,38.94,5.7132,5.7132,0,0,0,4.4231,37.229,34.8574,34.8574,0,0,0,.7513,36.52v-.835h46.067l5.6752,13.77-.8357.4171q-6.7592-8.4284-12.684-11.35a20.262,20.262,0,0,0-5.2574-1.1684,73.8069,73.8069,0,0,0-9.3471-.5008q-1.7537,0-3.63.1252a23.7049,23.7049,0,0,0-2.7132.2919q-.1667,1.3359-.2919,5.5085T17.61,52.46v5.3411q0,2.17.0415,3.5466t.0414,2.1278v.918h1.67q1.2514,0,2.8791-.083t3.254-.2089a18.7592,18.7592,0,0,0,2.7131-.3756A14.5215,14.5215,0,0,0,32.3813,62.14a9.1811,9.1811,0,0,0,2.7117-2.42,11.822,11.822,0,0,0,1.6685-3.297,39.74,39.74,0,0,0,1.1276-4.2141h1V78.4973h-1a28.5869,28.5869,0,0,0-2.0449-5.5085,14.6583,14.6583,0,0,0-2.8791-4.2557,11.0866,11.0866,0,0,0-3.2139-1.92,14.3581,14.3581,0,0,0-4.38-.918q-1.2536-.0822-2.0863-.1252-.8358-.0411-1.67-.0415H17.7769A25.8407,25.8407,0,0,0,17.61,69.15V79.1641q0,1.3359.0415,2.5457.0421,1.2114.0414,2.0449.0823,2.6716.292,5.0484a7.9969,7.9969,0,0,0,.96,3.5474q.7513,1.1691,3.5889,1.6685a35.6141,35.6141,0,0,0,6.1746.5008q1.4181,0,3.63-.083A46.3086,46.3086,0,0,0,36.97,94.019a18.2862,18.2862,0,0,0,4.9239-1.2936,17.2859,17.2859,0,0,0,4.34-2.7117,27.4949,27.4949,0,0,0,4.0467-4.2986,57.4668,57.4668,0,0,0,4.0482-6.1331l.9173.25Z" style="fill: #fff"/>
    <path id="fullLogo-2" data-name="fullLogo" d="M112.3292,95.7719H58.7525v-.8342a22.0553,22.0553,0,0,0,4.13-1.0862,7.69,7.69,0,0,0,3.2139-2.0863,4.221,4.221,0,0,0,.71-1.46,14.0091,14.0091,0,0,0,.4579-2.2123q.1666-1.2513.2919-2.6287.1267-1.3758.1259-2.7116,0-1.1691.0415-3.171t.083-4.3816q.0423-2.3782.043-4.8818V46.3672q0-1.5025-.126-2.7954a15.8635,15.8635,0,0,0-.3749-2.2953,3.8433,3.8433,0,0,0-.7512-1.5855,7.3949,7.3949,0,0,0-3.1295-2.17A16.9289,16.9289,0,0,0,59.3364,36.52v-.835H85.958v.835q-1.0847.1678-2.5872.5a10.3223,10.3223,0,0,0-2.8376,1.0854,6.9446,6.9446,0,0,0-2.2953,2.1278,6.6654,6.6654,0,0,0-1.0431,3.63q-.0824,2.9217-.1245,5.3411-.0423,2.4216-.083,4.7565-.0444,2.3382-.0429,4.84v15.189q0,2.17.0429,4.4638.04,2.296.0415,5.1329.0822,2.6717.2089,5.0914a7.4835,7.4835,0,0,0,.8758,3.5874,3.3984,3.3984,0,0,0,1.3351.8357,13.2537,13.2537,0,0,0,2.42.7083q1.4181.2934,3.088.5009a26.8544,26.8544,0,0,0,3.3385.2089q.6668,0,2.1278-.0415t3.2125-.1674q1.7536-.1245,3.5889-.3749a22.3324,22.3324,0,0,0,3.2554-.6683,18.6407,18.6407,0,0,0,5.5493-2.42,17.4761,17.4761,0,0,0,3.7963-3.4629,21.121,21.121,0,0,0,2.6717-4.2571q1.0824-2.2938,2.0863-4.798l.8343.25Z" style="fill: #fff"/>
    <path id="fullLogo-3" data-name="fullLogo" d="M118.8372,95.7719v-.8342a16.9167,16.9167,0,0,0,3.8808-1.0862,8.2431,8.2431,0,0,0,3.0465-2.1693,3.37,3.37,0,0,0,.6253-1.4181,18.12,18.12,0,0,0,.3349-2.1708q.1245-1.2513.166-2.6287.0422-1.3758.043-2.7116c0-.7794.0118-1.8359.0414-3.171q.04-2.0026.083-4.3816.04-2.3782.0415-4.8818V46.2005q0-1.5025-.1245-2.7962a17.2374,17.2374,0,0,0-.3763-2.3367,3.83,3.83,0,0,0-.7513-1.627,6.6293,6.6293,0,0,0-2.8791-2.0449,16.9634,16.9634,0,0,0-3.8808-.8757v-.835h24.9532v.835a21.5752,21.5752,0,0,0-3.7548.918,5.3728,5.3728,0,0,0-3.0881,2.67,7.9506,7.9506,0,0,0-.7927,3.5889q-.0444,2.17-.126,4.089,0,2.087-.0415,4.1312-.0421,2.0459-.0414,4.13V84.0051q0,2.42.0829,4.6735a5.97,5.97,0,0,0,.7513,3.171,6.2125,6.2125,0,0,0,3.171,2.1694,17.1111,17.1111,0,0,0,3.9223.9187v.8342Z" style="fill: #fff"/>
    <path id="fullLogo-4" data-name="fullLogo" d="M202.0406,40.15a55.3578,55.3578,0,0,0-6.9273,7.1355q-1.42,1.67-3.13,3.7556-1.7115,2.0871-3.463,4.1727t-3.3384,4.0475q-1.5848,1.9614-2.8376,3.4636.3335.5,1.4195,2.0026,1.0825,1.5026,2.5028,3.5882,1.4179,2.0871,3.088,4.4653t3.214,4.5476q1.5425,2.1715,2.7946,3.9223,1.2513,1.7537,1.8359,2.67,1.6692,2.4228,3.0466,4.34a29.022,29.022,0,0,0,2.7116,3.2969,14.4075,14.4075,0,0,0,2.7546,2.2523,8.1758,8.1758,0,0,0,3.1711,1.1277v.8342h-27.04v-.8342q1.1693-.1668,2.5043-.3764a13.6739,13.6739,0,0,0,2.5042-.6253,5.0942,5.0942,0,0,0,1.9189-1.1692,2.597,2.597,0,0,0,.7512-1.9189,7.0968,7.0968,0,0,0-1.0846-3.1295q-1.0869-1.96-2.5042-4.1312-1.92-3.0049-4.3817-6.5509t-5.6322-7.97q-1.3359,1.587-2.9221,3.5052-1.5847,1.92-3.171,3.8808-1.5848,1.96-3.045,3.7963-1.4625,1.8381-2.4628,3.2554a36.4209,36.4209,0,0,0-2.0863,3.3385,6.6,6.6,0,0,0-.9172,3.171,3.0465,3.0465,0,0,0,.7512,2.0449,6.0126,6.0126,0,0,0,1.9189,1.46,12.1077,12.1077,0,0,0,2.5043.9187,24.8172,24.8172,0,0,0,2.5027.5009v.8342H146.8769v-.8342a20.8645,20.8645,0,0,0,6.9273-3.63,50.9824,50.9824,0,0,0,7.3437-6.9688q1.2515-1.4181,3.0881-3.63,1.8336-2.2094,3.8393-4.5905,2.0025-2.3772,3.8378-4.6306t3.088-3.7556q-.5-.6667-2.2953-3.2132-1.7937-2.5438-4.0467-5.7167-2.2537-3.1695-4.4646-6.3-2.2138-3.13-3.5474-4.9655-1.7514-2.4193-3.13-4.2564a29.4771,29.4771,0,0,0-2.67-3.1295,14.3743,14.3743,0,0,0-2.7546-2.1693,15.0639,15.0639,0,0,0-3.38-1.46v-.835H175.92v.835q-1.0869.0834-2.5042.3334a15.9316,15.9316,0,0,0-2.5872.6675,5.95,5.95,0,0,0-2.0034,1.1684,2.47,2.47,0,0,0-.8342,1.92,6.5071,6.5071,0,0,0,1.1691,3.088q1.167,1.92,2.67,4.089,2.0849,3.0039,4.2557,6.1338,2.1693,3.1294,5.2573,7.5526,2.7561-3.1705,5.6337-6.9266t5.0485-6.5094a34.9727,34.9727,0,0,0,2.1708-3.3385,7.063,7.063,0,0,0,1.1676-3.3377,2.8057,2.8057,0,0,0-.7928-2.0033,7.22,7.22,0,0,0-1.9189-1.4188,11.3436,11.3436,0,0,0-2.4627-.918q-1.3358-.3323-2.42-.5v-.835h21.7821v.835A17.2356,17.2356,0,0,0,202.0406,40.15Z" style="fill: #fff"/>
    <path id="fullLogo-5" data-name="fullLogo" d="M211.2187,95.7719v-.8342A16.9167,16.9167,0,0,0,215.1,93.8515a8.2442,8.2442,0,0,0,3.0466-2.1693,3.3728,3.3728,0,0,0,.6253-1.4181,18.1215,18.1215,0,0,0,.3348-2.1708q.1245-1.2513.166-2.6287.0423-1.3758.043-2.7116c0-.7794.0118-1.8359.0415-3.171q.04-2.0026.083-4.3816.04-2.3782.0414-4.8818V46.2005q0-1.5025-.1244-2.7962a17.2523,17.2523,0,0,0-.3764-2.3367,3.83,3.83,0,0,0-.7513-1.627,6.6293,6.6293,0,0,0-2.8791-2.0449,16.9613,16.9613,0,0,0-3.8807-.8757v-.835h24.9531v.835a21.5752,21.5752,0,0,0-3.7548.918,5.3723,5.3723,0,0,0-3.088,2.67,7.9492,7.9492,0,0,0-.7928,3.5889q-.0444,2.17-.1259,4.089,0,2.087-.0415,4.1312-.0423,2.0459-.0415,4.13V84.0051q0,2.42.083,4.6735a5.969,5.969,0,0,0,.7512,3.171,6.2125,6.2125,0,0,0,3.171,2.1694,17.1123,17.1123,0,0,0,3.9223.9187v.8342Z" style="fill: #fff"/>
    <path id="fullLogo-6" data-name="fullLogo" d="M290.082,95.7719q-.7512-.7512-1.0847-1.1276t-.7512-.8758a16.0427,16.0427,0,0,1-1.0432-1.461q-.6246-.958-1.96-2.8791-1.587-2.3338-2.7961-4.2142-1.2114-1.8782-2.4627-3.7133t-2.7117-3.7134q-1.46-1.8782-3.4629-4.2141a34.301,34.301,0,0,0-3.63-3.5889,9.0012,9.0012,0,0,0-4.1312-2.0864,12.8655,12.8655,0,0,0-2.42-.3334q-.7514,0-1.92-.0837V76.91q0,4.0075.0845,6.76.0822,2.6717.1659,4.5906a6.0788,6.0788,0,0,0,.9187,3.171,7.3384,7.3384,0,0,0,2.5872,2.2123,11.7633,11.7633,0,0,0,5.34,1.2936v.8342H244.0994v-.8342a23.3678,23.3678,0,0,0,4.0053-1.0017,6.5158,6.5158,0,0,0,3.005-2.0034,3.7846,3.7846,0,0,0,.6668-1.5025,15.8613,15.8613,0,0,0,.3764-2.2523q.1245-1.2536.2089-2.6717.0822-1.418.083-2.7531,0-1.1691.0415-3.171t.083-4.3816q.0421-2.3782.0429-4.8818V49.2048q0-1.5025-.0429-3.0458t-.166-2.9214a15.8249,15.8249,0,0,0-.4179-2.5034,3.5629,3.5629,0,0,0-.7927-1.6278,6.2736,6.2736,0,0,0-2.7961-1.7937A28.1374,28.1374,0,0,0,244.6,36.52v-.835h3.4214q2.836,0,6.4265-.0415,3.5851-.0411,7.1762-.0415h5.8412q5.5923,0,9.9324.3334a19.8691,19.8691,0,0,1,7.9275,2.2531,16.0771,16.0771,0,0,1,5.9256,5.2158,14.4009,14.4009,0,0,1,2.2523,8.3039,13.1839,13.1839,0,0,1-1.1261,5.55,14.7856,14.7856,0,0,1-3.0051,4.3394,18.3355,18.3355,0,0,1-4.38,3.2133,33.9932,33.9932,0,0,1-5.2574,2.253v.25a10.7374,10.7374,0,0,1,2.7532,2.1694,30.6215,30.6215,0,0,1,2.5872,3.1717q2.1693,3.1718,4.715,6.8421,2.5449,3.6741,4.549,6.51a25.5326,25.5326,0,0,0,6.0087,6.3435,16.1086,16.1086,0,0,0,6.8428,2.5872v.8342ZM281.8211,43.78a14.41,14.41,0,0,0-6.0931-5.1737,18.229,18.229,0,0,0-4.2142-1.3358,24.9791,24.9791,0,0,0-4.632-.4171q-1.7516,0-2.8376.0837c-.7231.0556-1.28.1119-1.6685.1667q-.0845.5013-.1675.8765a6.5523,6.5523,0,0,0-.1244.9594c-.03.39-.0563.9328-.083,1.6278q-.0444,1.0435-.126,2.962-.0845,2.9229-.1244,6.5932-.0445,3.673-.043,7.0933v9.18q3.4229,0,6.385-.2927a26.0569,26.0569,0,0,0,5.7167-1.21,15.332,15.332,0,0,0,4.5891-2.253,13.1021,13.1021,0,0,0,3.13-3.2132,13.3362,13.3362,0,0,0,1.7944-3.88,16.01,16.01,0,0,0,.5853-4.34A13.4728,13.4728,0,0,0,281.8211,43.78Z" style="fill: #fff"/>
    <path id="fullLogo-7" data-name="fullLogo" d="M365.0772,53.5552h10.6071c7.8677,0,13.2409,4.8535,13.2409,12.1324s-5.3732,12.1311-13.2409,12.1311H365.0772ZM375.4759,74.006c5.4071,0,8.9085-3.293,8.9085-8.3184s-3.5014-8.32-8.9085-8.32h-5.8917V74.006Z" style="fill: #fff"/>
    <path id="fullLogo-8" data-name="fullLogo" d="M404.1422,75.2539l1.56-3.5014a13.4378,13.4378,0,0,0,8.0071,2.669c3.7775,0,5.3719-1.3508,5.3719-3.1536,0-5.2338-14.42-1.8028-14.42-10.8141,0-3.9169,3.12-7.2451,9.7747-7.2451a15.344,15.344,0,0,1,8.0761,2.1493l-1.4211,3.5014a13.474,13.474,0,0,0-6.6888-1.907c-3.7437,0-5.2691,1.4563-5.2691,3.293,0,5.1648,14.3846,1.8028,14.3846,10.71,0,3.8831-3.1535,7.21-9.8085,7.21C409.9309,78.1652,406.1534,76.9864,404.1422,75.2539Z" style="fill: #fff"/>
    <path id="fullLogo-9" data-name="fullLogo" d="M457.0381,65.41h4.2634v9.67a15.364,15.364,0,0,1-9.4972,3.0845c-7.5225,0-13.0677-5.2338-13.0677-12.4776s5.5452-12.4789,13.1367-12.4789c4.055,0,7.4522,1.3521,9.74,3.9521l-2.8423,2.7732a9.0024,9.0024,0,0,0-6.69-2.7732c-5.1635,0-8.8029,3.5-8.8029,8.5268,0,4.9212,3.6394,8.5268,8.7691,8.5268a9.8027,9.8027,0,0,0,4.9915-1.2479Z" style="fill: #fff"/>
    <path id="fullLogo-10" data-name="fullLogo" d="M501.2666,53.5552V77.8187h-3.7085l-13.379-16.43v16.43h-4.4718V53.5552h3.7085l13.38,16.43v-16.43Z" style="fill: #fff"/>
    <rect id="fullLogo-11" data-name="fullLogo" x="335.1343" width="2" height="131.374" style="fill: #fff"/>
  </g>
</svg>
